<?xml version="1.0" encoding="UTF-8"?>
<svg width="300px" height="300px" viewBox="0 0 300 300" version="1.1" xmlns="http://www.w3.org/2000/svg" xmlns:xlink="http://www.w3.org/1999/xlink">
    <!-- Generator: Sketch 60.1 (88133) - https://sketch.com -->
    <title>常规</title>
    <desc>Created with Sketch.</desc>
    <g id="页面-1" stroke="none" stroke-width="1" fill="none" fill-rule="evenodd">
        <g id="常规">
            <g id="编组备份-10">
                <rect id="矩形" fill="#0056FF" x="0" y="0" width="300" height="300"></rect>
                <path d="M179.211223,58.6014894 L166.537021,105.893777 C149.971596,101.452021 132.948191,111.283404 128.516011,127.84883 L121.801915,152.890851 L113.030106,185.613989 C107.152181,207.538723 92.7154787,224.889255 74.2750532,235.026223 C62.9157447,241.27117 50.0380851,244.775426 36.7024468,244.928617 L36.7024468,195.94484 C39.7686702,195.853085 42.7543085,195.313723 45.5963298,194.355479 C55.1325,191.156809 62.9364894,183.393511 65.7378191,172.940585 L72.4415426,147.898564 L81.2133511,115.175426 C90.7902128,79.4259574 123.116011,55.8504255 158.448191,55.8504255 C165.304309,55.8504255 172.272926,56.7368617 179.211223,58.6014894" id="Fill-1" fill="#FFFFFF"></path>
                <path d="M263.995293,104.844654 C260.979335,104.926037 258.025612,105.466197 255.223484,106.403697 C245.626676,109.572048 237.771622,117.355293 234.969495,127.84891 L228.255399,152.890931 L219.484388,185.614069 C209.907527,221.364335 177.571356,244.939069 142.239176,244.939069 C135.383059,244.939069 128.424016,244.052633 121.486516,242.198378 L134.15992,194.895718 C150.725346,199.337473 167.749548,189.50609 172.191303,172.940665 L178.905399,147.898644 L187.666835,115.175505 C193.515239,93.3624734 207.828271,76.0733777 226.126676,65.9164628 C237.556995,59.5693883 250.547154,56.0140691 263.995293,55.8608777 L263.995293,104.844654 Z" id="Fill-3" fill="#FFFFFF"></path>
            </g>
        </g>
    </g>
</svg>